# xmcd
#
# Track frame offsets: 
#        150
#        16731
#        33802
#        50899
#        69570
#        74699
#        94768
#        114622
#        133225
#        152395
#        171505
#
# Disc length: 2496 seconds
#
# Revision: 0
# Processed by: cddbd v1.5.2PL0 Copyright (c) Steve Scherf et al.
# Submitted via: ExactAudioCopy v1.0b1
#
DISCID=9909be0b
DTITLE=Siltane - Moonlight Benjamin
DYEAR=2018
DGENRE=Blues
TTITLE0=Memwa'n
TTITLE1=Papa Legba
TTITLE2=Moso moso
TTITLE3=Siltane
TTITLE4=Simbi
TTITLE5=Chan dayiva
TTITLE6=Port-au-prince
TTITLE7=Doux pays
TTITLE8=Tan malouk
TTITLE9=Des murs
TTITLE10=Mèt agwe 
EXTD=
EXTT0=
EXTT1=
EXTT2=
EXTT3=
EXTT4=
EXTT5=
EXTT6=
EXTT7=
EXTT8=
EXTT9=
EXTT10=
PLAYORDER=
